<?xml version="1.0" encoding="utf-8"?><svg viewBox="0 0 96 96" xmlns="http://www.w3.org/2000/svg" xmlns:xlink="http://www.w3.org/1999/xlink"><style>:root>svg{display:none}:root>svg:target{display:block}</style><svg viewBox="0 0 21 21" id="clock" xmlns="http://www.w3.org/2000/svg"><g clip-path="url(#aclip0_174_1276)"><path d="M10.5 18.26a.457.457 0 100 .914.457.457 0 000-.913zM10.5 2.74a.457.457 0 100-.914.457.457 0 000 .913zM2.283 10.043a.457.457 0 100 .914.457.457 0 000-.914z"/><path d="M10.5 0C4.71 0 0 4.71 0 10.5S4.71 21 10.5 21 21 16.29 21 10.5 16.29 0 10.5 0zm0 20.087c-5.287 0-9.587-4.3-9.587-9.587S5.213.913 10.5.913s9.587 4.3 9.587 9.587-4.3 9.587-9.587 9.587z"/><path d="M10.5 9.13c-.142 0-.276.028-.405.068L8.583 7.183a.456.456 0 00-.73.548L9.36 9.742a1.332 1.332 0 00-.146.301H4.11a.457.457 0 000 .914h5.105c.19.53.692.912 1.286.912.755 0 1.37-.614 1.37-1.369s-.615-1.37-1.37-1.37zm0 1.826a.457.457 0 11.001-.914.457.457 0 01-.001.915zM18.717 10.043a.457.457 0 100 .914.457.457 0 000-.914z"/></g><defs><clipPath id="aclip0_174_1276"><path d="M0 0h21v21H0z"/></clipPath></defs></svg><svg viewBox="0 0 24 24" id="close" xmlns="http://www.w3.org/2000/svg"><path d="M23.361 21.15l-9.302-9.29 9.303-9.184.317-.317c.317-.422.422-.95.211-1.372-.211-.422-.529-.845-1.057-.95-.529-.106-1.057 0-1.586.528l-9.302 9.29-6.66-6.651L2.643.564C2.22.038 1.69-.068 1.163.038.634.142.21.565 0 1.092v.74c.106.422.423.738.74 1.055l9.09 9.079-9.09 9.078c-.317.317-.634.634-.74 1.056v.633c.211.634.529 1.056 1.163 1.267h.634c.423-.106.74-.422 1.057-.633l9.091-9.079 9.09 9.079c.318.316.53.527.952.633h.635l.21-.106c.53-.21.952-.738.952-1.372.106-.633-.105-.95-.422-1.372z"/></svg><svg viewBox="0 0 15 21" id="location" xmlns="http://www.w3.org/2000/svg"><path d="M7.568 4.602a2.688 2.688 0 00-2.684 2.685A2.688 2.688 0 007.568 9.97a2.688 2.688 0 002.685-2.684 2.688 2.688 0 00-2.685-2.685zm0 4.602a1.92 1.92 0 01-1.917-1.917 1.92 1.92 0 011.917-1.918 1.92 1.92 0 011.918 1.918 1.92 1.92 0 01-1.918 1.917z"/><path d="M12.701 2.154A7.307 7.307 0 007.501 0a7.306 7.306 0 00-5.2 2.154C-.272 4.724-.59 9.561 1.607 12.491L7.501 21l5.883-8.498c2.207-2.941 1.888-7.778-.683-10.348zm.061 9.9l-5.261 7.598-5.27-7.61C.237 9.384.523 5.016 2.843 2.696A6.544 6.544 0 017.5.767c1.76 0 3.413.685 4.658 1.93 2.32 2.32 2.606 6.687.603 9.357z"/></svg><svg viewBox="0 0 24 24" id="new" xmlns="http://www.w3.org/2000/svg"><path d="M22.287 12.055a.588.588 0 00-.755-.35l-5.513 2.019 4.456-4.453a.587.587 0 000-.833L17.028 4.99a.588.588 0 00-.832 0l-4.371 4.368 2.451-5.815a.588.588 0 00-.314-.77L9.47.876a.588.588 0 00-.77.313L6.276 6.933V.82A.589.589 0 005.69.23h-5.1A.589.589 0 000 .82V23.18c0 .325.264.589.588.589h5.1a.59.59 0 00.204-.039c.064.023.13.039.2.039a.583.583 0 00.202-.036l17.32-6.346a.588.588 0 00.35-.755l-1.677-4.578zM3.479 22.593H1.177V1.407H5.1V22.593H3.48zm9.484-18.966l-3.345 7.936L9.012 13l-.607 1.438-1.034 2.454-.626 1.482-.468 1.113V9.964L9.554 2.19l3.41 1.437zM8.256 17.821l.626-1.482 1.73-4.107 5.999-5.994 2.616 2.616-5.837 5.833-1.98 1.979-4.608 4.604 1.454-3.45zm-.442 4.102l6.224-6.22 7.346-2.69 1.272 3.473-14.842 5.437z"/></svg><svg viewBox="0 0 7 12" id="next" xmlns="http://www.w3.org/2000/svg"><path d="M.922.375c.12 0 .24.046.331.137L6.41 5.668a.468.468 0 010 .663l-5.157 5.157a.468.468 0 11-.663-.663L5.415 6 .59 1.175a.468.468 0 01.332-.8z"/></svg><svg viewBox="0 0 21 21" id="phone" xmlns="http://www.w3.org/2000/svg"><path d="M3.923.969c-.328.01-.616.183-.857.424L1.736 2.72a.329.329 0 10.465.465l.457-.457 2.684 2.751c.305.332.794-.145.47-.458l-2.69-2.757.407-.407c.168-.168.304-.228.414-.232.11-.003.242.042.433.232l2.82 2.818a.319.319 0 010 .462L5.674 6.658c-.385.385-.514.832-.47 1.207.045.375.229.668.383.867.596.77 1.52 2.12 3.04 3.64s2.871 2.445 3.64 3.04c.2.154.492.339.868.383.375.044.82-.085 1.206-.47l.455-.454 2.689 2.748c.303.363.824-.147.468-.458l-2.695-2.752.604-.603a.319.319 0 01.463 0l2.817 2.817c.19.19.236.324.232.434-.004.11-.064.245-.232.414l-1.328 1.327c-.554.554-1.281.56-1.736.56-1.72 0-4.778-.646-9.285-5.152C2.287 9.699 1.641 6.64 1.641 4.922c0-.164 0-.366.027-.582a.328.328 0 10-.649-.082c-.034.265-.034.499-.034.663 0 1.89.756 5.157 5.346 9.747s7.857 5.347 9.747 5.347c.456 0 1.445.004 2.201-.752l1.328-1.327c.24-.241.414-.532.424-.86.01-.328-.151-.645-.424-.918l-2.817-2.817a.99.99 0 00-1.393 0l-1.518 1.522c-.271.27-.475.303-.67.28-.194-.023-.392-.135-.539-.249-.802-.621-2.101-1.51-3.578-2.986-1.477-1.477-2.365-2.776-2.986-3.579-.114-.147-.227-.345-.25-.54-.023-.194.013-.397.284-.668l1.518-1.518a.99.99 0 000-1.394L4.841 1.393c-.273-.273-.59-.435-.918-.424z"/></svg><svg viewBox="0 0 7 12" id="prev" xmlns="http://www.w3.org/2000/svg"><path d="M6.078 11.625a.467.467 0 01-.331-.137L.59 6.332a.468.468 0 010-.663L5.747.512a.468.468 0 11.663.663L1.585 6l4.825 4.825a.468.468 0 01-.332.8z"/></svg><svg viewBox="0 0 20 19" id="star" xmlns="http://www.w3.org/2000/svg"><path d="M10 .5l2.245 6.91h7.266l-5.878 4.27 2.245 6.91L10 14.32l-5.878 4.27 2.245-6.91L.49 7.41h7.266L10 .5z"/></svg><svg viewBox="0 0 45 45" id="telegram" xmlns="http://www.w3.org/2000/svg"><path d="M22.5 45C34.93 45 45 34.93 45 22.5S34.93 0 22.5 0 0 10.07 0 22.5 10.07 45 22.5 45zM10.296 22.012l21.693-8.364c1.007-.364 1.887.246 1.56 1.768l.002-.002-3.694 17.402c-.273 1.234-1.006 1.534-2.032.953L22.2 29.623l-2.713 2.614c-.3.3-.553.553-1.134.553l.399-5.724 10.425-9.418c.454-.4-.101-.625-.7-.227l-12.883 8.11-5.553-1.732c-1.206-.382-1.232-1.205.255-1.787z"/></svg><svg viewBox="0 0 96 96" id="vk" xmlns="http://www.w3.org/2000/svg"><path d="M48 0a48 48 0 1048 48A48 48 0 0048 0zm28 62.63c-.3 1.92-3.48 1.56-6.28 1.64a18.46 18.46 0 01-6.25-.55c-1.89-.74-6.91-7.35-8.2-7.1-2.93.6-1.87 6.69-2.71 7.1-1.29.6-5.29.44-6.86.27-8.23-1.37-13-6.85-17.44-13.93-5.51-8.61-8.77-15-7.37-15.85s5.75-.63 10.06-.55c1.32.05 5 9.4 6 11 3.89 6.22 5.1 1.62 5.18 1.07 1.16-11.23-1.59-10.73-3.2-10.96 1.18-3.62 9.57-3 9.57-3a16.34 16.34 0 013.81 1.4c.41.25.88 1.18.85 4.06-.16 4.42-.61 10.37 1.34 10.37 1.48.06 3.81-3.45 5.73-7.07 1.67-3.21 3-6.33 3.54-6.55a38.21 38.21 0 016-.3c2.63 0 5.29 0 6 .55 1.4 1.21-1.07 5-3.32 8.23-1.81 2.63-5.37 6.06-5.15 7.92.28 2.57 9.44 8.05 8.7 12.25z" data-name="Layer 2"/></svg><svg viewBox="0 0 45 45" id="whatsapp" xmlns="http://www.w3.org/2000/svg"><path d="M26.94 23.755a1.237 1.237 0 00-2.072.465 1.263 1.263 0 01-1.46.797c-1.328-.332-3.12-2.073-3.451-3.45a1.205 1.205 0 01.796-1.462 1.234 1.234 0 00.477-2.046L19.37 16.2a1.324 1.324 0 00-1.79 0l-1.262 1.267c-1.26 1.327.134 4.844 3.257 7.964s6.634 4.577 7.96 3.257l1.262-1.261a1.323 1.323 0 000-1.777l-1.856-1.895z"/><path d="M22.5 0a22.5 22.5 0 100 45 22.5 22.5 0 000-45zm0 34.342a11.744 11.744 0 01-6.513-1.957l-4.55 1.457 1.48-4.4A11.842 11.842 0 0122.5 10.658a11.842 11.842 0 110 23.684z"/></svg></svg>