<svg width="76" height="77" viewBox="0 0 76 77" fill="none" xmlns="http://www.w3.org/2000/svg">
<rect x="1" y="1.5" width="74" height="74" rx="37" fill="#E2E2E2"/>
<rect x="1" y="1.5" width="74" height="74" rx="37" stroke="#EB8847" stroke-width="2"/>
<path d="M37.5024 39.1746C42.5025 39.1746 46.5897 35.0873 46.5897 30.0873C46.5897 25.0873 42.5025 21 37.5024 21C32.5024 21 28.4152 25.0873 28.4152 30.0873C28.4152 35.0873 32.5025 39.1746 37.5024 39.1746Z" fill="#EEF1F4"/>
<path d="M53.0977 46.4365C52.8596 45.8413 52.5422 45.2857 52.185 44.7699C50.3596 42.0714 47.5422 40.2857 44.3676 39.8492C43.9708 39.8096 43.5343 39.8888 43.2168 40.127C41.5501 41.3571 39.566 41.992 37.5025 41.992C35.439 41.992 33.4549 41.3571 31.7882 40.127C31.4707 39.8888 31.0342 39.7698 30.6374 39.8492C27.4628 40.2857 24.6057 42.0714 22.82 44.7699C22.4628 45.2857 22.1453 45.881 21.9073 46.4365C21.7883 46.6747 21.8279 46.9524 21.9469 47.1905C22.2644 47.7461 22.6612 48.3017 23.0184 48.7778C23.5739 49.5318 24.1692 50.2064 24.8438 50.8413C25.3993 51.3968 26.0342 51.9127 26.6692 52.4286C29.8041 54.7699 33.574 56 37.4629 56C41.3517 56 45.1216 54.7698 48.2565 52.4286C48.8914 51.9525 49.5263 51.3968 50.0819 50.8413C50.7168 50.2064 51.3517 49.5318 51.9073 48.7778C52.3041 48.262 52.6613 47.7461 52.9788 47.1905C53.1771 46.9524 53.2167 46.6746 53.0977 46.4365Z" fill="#EEF1F4"/>
</svg>
