<svg width="15" height="21" viewBox="0 0 15 21" fill="none" xmlns="http://www.w3.org/2000/svg">
<path d="M7.56845 4.60215C6.08848 4.60215 4.88387 5.80677 4.88387 7.28674C4.88387 8.76672 6.08848 9.97133 7.56845 9.97133C9.04843 9.97133 10.253 8.76672 10.253 7.28674C10.253 5.80677 9.04843 4.60215 7.56845 4.60215ZM7.56845 9.2043C6.51111 9.2043 5.65089 8.34408 5.65089 7.28674C5.65089 6.2294 6.51111 5.36918 7.56845 5.36918C8.6258 5.36918 9.48602 6.2294 9.48602 7.28674C9.48602 8.34408 8.6258 9.2043 7.56845 9.2043Z" fill="#eb8847"/>
<path d="M12.701 2.15419C11.3119 0.765108 9.46493 0 7.50058 0C5.53584 0 3.68923 0.765108 2.30014 2.15419C-0.270541 4.72449 -0.590006 9.56059 1.60829 12.4906L7.50058 21L13.384 12.5025C15.5912 9.56059 15.2717 4.72449 12.701 2.15419ZM12.762 12.0542L7.50058 19.6523L2.23073 12.0423C0.236847 9.38379 0.522564 5.01635 2.84281 2.69648C4.08693 1.45236 5.74102 0.767025 7.50058 0.767025C9.26013 0.767025 10.9142 1.45236 12.1587 2.69648C14.479 5.01635 14.7647 9.38379 12.762 12.0542Z" fill="#eb8847"/>
</svg>
