<svg width="21" height="21" viewBox="0 0 21 21" fill="none" xmlns="http://www.w3.org/2000/svg">
<g clip-path="url(#clip0_174_1276)">
<path d="M10.5 18.2609C10.248 18.2609 10.0435 18.4654 10.0435 18.7174C10.0435 18.9694 10.248 19.1739 10.5 19.1739C10.752 19.1739 10.9565 18.9694 10.9565 18.7174C10.9565 18.4654 10.752 18.2609 10.5 18.2609Z" fill="#B3B3B3"/>
<path d="M10.5 2.73913C10.752 2.73913 10.9565 2.53464 10.9565 2.28264C10.9565 2.03064 10.752 1.8261 10.5 1.8261C10.248 1.8261 10.0435 2.03064 10.0435 2.28264C10.0435 2.53464 10.248 2.73913 10.5 2.73913Z" fill="#B3B3B3"/>
<path d="M2.28259 10.0435C2.03059 10.0435 1.82605 10.248 1.82605 10.5C1.82605 10.752 2.03059 10.9565 2.28259 10.9565C2.53459 10.9565 2.73912 10.752 2.73912 10.5C2.73912 10.248 2.53463 10.0435 2.28259 10.0435Z" fill="#B3B3B3"/>
<path d="M10.5 0C4.7104 0 0 4.71036 0 10.5C0 16.2897 4.71036 21 10.5 21C16.2896 21 21 16.2896 21 10.5C21 4.7104 16.2896 0 10.5 0ZM10.5 20.0869C5.21346 20.0869 0.913029 15.7865 0.913029 10.5C0.913029 5.21346 5.21346 0.913029 10.5 0.913029C15.7865 0.913029 20.0869 5.21346 20.0869 10.5C20.0869 15.7865 15.7865 20.0869 10.5 20.0869Z" fill="#B3B3B3"/>
<path d="M10.5 9.13046C10.3584 9.13046 10.2242 9.15785 10.0955 9.19799L8.58349 7.18289C8.431 6.9802 8.14523 6.94091 7.94438 7.0916C7.74258 7.2432 7.70153 7.52897 7.85214 7.73076L9.36046 9.74218C9.29836 9.83437 9.25184 9.93756 9.21439 10.0435H4.1087C3.8567 10.0435 3.65216 10.248 3.65216 10.5C3.65216 10.752 3.8567 10.9565 4.1087 10.9565H9.21443C9.40343 11.487 9.90559 11.8695 10.5 11.8695C11.2551 11.8695 11.8695 11.2551 11.8695 10.5C11.8695 9.74488 11.2551 9.13046 10.5 9.13046ZM10.5 10.9565C10.2489 10.9565 10.0434 10.752 10.0434 10.5C10.0434 10.248 10.2489 10.0435 10.5 10.0435C10.7511 10.0435 10.9565 10.248 10.9565 10.5C10.9565 10.752 10.7511 10.9565 10.5 10.9565Z" fill="#B3B3B3"/>
<path d="M18.7173 10.0435C18.4653 10.0435 18.2608 10.248 18.2608 10.5C18.2608 10.752 18.4653 10.9565 18.7173 10.9565C18.9693 10.9565 19.1739 10.752 19.1739 10.5C19.1739 10.248 18.9693 10.0435 18.7173 10.0435Z" fill="#B3B3B3"/>
</g>
<defs>
<clipPath id="clip0_174_1276">
<rect width="21" height="21" fill="white"/>
</clipPath>
</defs>
</svg>
