<svg width="24" height="24" viewBox="0 0 24 24" fill="none" xmlns="http://www.w3.org/2000/svg">
<path d="M22.2866 12.0552C22.1747 11.7493 21.836 11.5923 21.5318 11.7046L16.0186 13.724L20.4751 9.27093C20.5855 9.16116 20.6471 9.01113 20.6471 8.85471C20.6471 8.69894 20.5854 8.54913 20.4751 8.43841L17.0278 4.98909C16.7979 4.75922 16.4255 4.75922 16.1956 4.98909L11.8247 9.35695L14.2761 3.54186C14.3366 3.398 14.3374 3.23592 14.2792 3.09148C14.2202 2.94705 14.1064 2.83175 13.9623 2.77138L9.46923 0.876819C9.16939 0.749024 8.82422 0.891423 8.69817 1.19039L6.27717 6.93349V0.81877C6.27717 0.493869 6.01359 0.230286 5.68868 0.230286H0.588485C0.263583 0.230286 0 0.493869 0 0.81877V23.1812C0 23.5061 0.263583 23.7697 0.588485 23.7697H5.68868C5.76054 23.7697 5.82876 23.7547 5.89233 23.7314C5.95597 23.7543 6.02223 23.7697 6.09118 23.7697C6.15882 23.7697 6.22697 23.7582 6.29366 23.7336L23.6137 17.3883C23.9186 17.2764 24.0757 16.9385 23.9638 16.6335L22.2866 12.0552ZM3.47882 22.5927H1.17697V21.6219V20.9836V20.5468V19.0323V1.40725H5.1002V9.7253V11.24V12.7551V16.0773V16.9087V17.724V17.7408V21.3867V21.9989V22.1863V22.2192V22.5928H4.99384H4.64118H3.47882V22.5927ZM12.9632 3.62708L9.61787 11.5625L9.01173 13L8.40545 14.4375L7.37059 16.8921L6.74549 18.3744L6.27717 19.4867V18.5461V17.2929V16.5647V15.7325V14.9011V9.96353L9.55423 2.19045L12.9632 3.62708ZM8.25644 17.8208L8.88154 16.3386L10.6127 12.2318L16.611 6.23755L19.2266 8.85435L13.3901 14.6873L11.4101 16.6657L6.80245 21.2701L8.25644 17.8208ZM7.81391 21.9234L14.0382 15.7033L21.3839 13.0122L22.6563 16.4857L7.81391 21.9234Z" fill="#EB8847"/>
</svg>
