<svg width="21" height="21" viewBox="0 0 21 21" fill="none" xmlns="http://www.w3.org/2000/svg">
<path d="M3.92338 0.968562C3.59532 0.978483 3.30711 1.15161 3.0659 1.39282L1.7361 2.72006C1.70442 2.75032 1.6791 2.78658 1.66164 2.82675C1.64417 2.86692 1.63491 2.91019 1.63439 2.95399C1.63387 2.99779 1.64211 3.04123 1.65862 3.0818C1.67512 3.12238 1.69957 3.15924 1.73053 3.19023C1.76148 3.22123 1.79831 3.24573 1.83886 3.26229C1.87941 3.27886 1.92286 3.28716 1.96666 3.2867C2.01046 3.28624 2.05373 3.27706 2.09392 3.25964C2.13412 3.24223 2.17043 3.21695 2.20072 3.18531L2.6583 2.72775L5.34227 5.47897C5.64708 5.81061 6.13622 5.33414 5.81266 5.02076L3.12229 2.26375L3.52861 1.85743C3.69699 1.68904 3.83267 1.6288 3.94261 1.62543C4.05261 1.62171 4.1853 1.66685 4.37584 1.85743L7.19566 4.67469C7.32821 4.80724 7.32821 5.00485 7.19566 5.1374L5.67424 6.65819C5.28916 7.04327 5.16037 7.48975 5.20448 7.86497C5.24863 8.24019 5.433 8.53303 5.58708 8.73204C6.18265 9.5013 7.10693 10.8524 8.62672 12.3722C10.1465 13.892 11.4982 14.8169 12.2675 15.4125C12.4665 15.5665 12.7594 15.751 13.1346 15.7951C13.5098 15.8392 13.9556 15.7103 14.3407 15.3253L14.7957 14.8715L17.4848 17.619C17.7885 17.9819 18.3091 17.4719 17.9526 17.1607L15.2584 14.4089L15.8621 13.8064C15.9947 13.6739 16.1923 13.6739 16.3248 13.8064L19.1415 16.6231C19.332 16.8136 19.3775 16.947 19.3741 17.0569C19.3704 17.1669 19.3099 17.3025 19.1415 17.4709L17.8142 18.7982C17.2604 19.3519 16.5328 19.3577 16.0775 19.3577C14.3581 19.3577 11.2996 18.7121 6.79319 14.2057C2.2868 9.69933 1.64124 6.64148 1.64124 4.92209C1.64124 4.758 1.64026 4.55624 1.66815 4.34016C1.67726 4.29587 1.67712 4.2502 1.66773 4.20596C1.65834 4.16172 1.63991 4.11989 1.61359 4.08311C1.58728 4.04633 1.55365 4.0154 1.51481 3.99224C1.47597 3.96908 1.43276 3.95416 1.38789 3.94849C1.34303 3.94282 1.29747 3.94651 1.25409 3.95928C1.21071 3.97204 1.17043 3.9936 1.13579 4.02267C1.10114 4.05174 1.07288 4.08768 1.05278 4.12819C1.03267 4.16869 1.02116 4.21291 1.01895 4.25807C0.984972 4.52308 0.984985 4.75662 0.984985 4.92137C0.984985 6.81092 1.74102 10.0783 6.33112 14.6684C10.9212 19.2584 14.1879 20.0145 16.0775 20.0145C16.5341 20.0145 17.5234 20.0194 18.2795 19.2634L19.6067 17.9361C19.8479 17.6949 20.0209 17.4042 20.031 17.0761C20.0409 16.7481 19.8796 16.4313 19.6067 16.1584L16.7901 13.3411C16.4085 12.9595 15.7784 12.9595 15.3969 13.3411L13.8786 14.8625C13.6075 15.1337 13.4041 15.1661 13.2096 15.1432C13.015 15.1204 12.8171 15.0078 12.67 14.894C11.8679 14.273 10.5685 13.384 9.09198 11.9075C7.61541 10.4309 6.72653 9.13161 6.10553 8.3295C5.99168 8.1824 5.87911 7.98386 5.85623 7.78928C5.8333 7.5947 5.86851 7.392 6.1395 7.12083L7.65836 5.60261C8.03995 5.22103 8.03994 4.59096 7.65836 4.20937L4.8411 1.39275C4.56823 1.11986 4.25143 0.95848 3.92338 0.968562Z" fill="white"/>
</svg>
