<svg width="35" height="27" viewBox="0 0 35 27" fill="none" xmlns="http://www.w3.org/2000/svg">
<path d="M34.5 4.20307V0.484253H0.5V4.20307H16.9687V6.32801H14.8437V15.8905C14.8437 17.1733 15.7578 18.2465 16.9687 18.4934V20.4596C15.8424 20.6892 14.9731 21.6337 14.857 22.7968H13.7813V23.3281C13.7813 23.914 13.3047 24.3905 12.7188 24.3905H12.1875V26.5156H22.8125V24.3905H22.2812C21.6953 24.3905 21.2187 23.914 21.2187 23.3281V22.7968H20.143C20.027 21.6337 19.1576 20.6892 18.0313 20.4596V18.4934C19.2422 18.2465 20.1563 17.1733 20.1563 15.8905V6.32801H18.0313V4.20307H34.5ZM20.2234 23.8593C20.4161 24.605 21.0043 25.1932 21.7499 25.3858V25.4531H13.2501V25.3858C13.9957 25.1932 14.5839 24.6049 14.7765 23.8593H20.2234ZM19.0711 22.7968H15.9288C16.0557 22.0441 16.7117 21.4687 17.4999 21.4687C18.2883 21.4687 18.9443 22.044 19.0711 22.7968ZM19.0937 7.39055V15.8905C19.0937 16.7694 18.3788 17.4843 17.5 17.4843C16.6212 17.4843 15.9063 16.7694 15.9063 15.8905V7.39055H19.0937ZM1.56254 3.14053V1.54679H33.4375V3.14053H1.56254Z" fill="white"/>
</svg>
