<svg width="32" height="35" viewBox="0 0 32 35" fill="none" xmlns="http://www.w3.org/2000/svg">
<path d="M28.1428 10.2143H18.4285V1.30952C18.4285 0.864286 18.0643 0.5 17.619 0.5H1.42854C0.983304 0.5 0.619019 0.864286 0.619019 1.30952V33.6905C0.619019 34.1357 0.983304 34.5 1.42854 34.5H17.619C18.0643 34.5 18.4285 34.1357 18.4285 33.6905V16.6905H28.1428C29.9319 16.6905 31.3809 15.2414 31.3809 13.4524C31.3809 11.6633 29.9319 10.2143 28.1428 10.2143ZM16.8095 32.881H2.23807V2.11905H16.8095V10.2143H11.1428C10.6976 10.2143 10.3333 10.5786 10.3333 11.0238V15.881C10.3333 16.3262 10.6976 16.6905 11.1428 16.6905H16.8095V32.881ZM28.1428 15.0714H11.9524V11.8333H28.1428C29.0333 11.8333 29.7619 12.5619 29.7619 13.4524C29.7619 14.3429 29.0333 15.0714 28.1428 15.0714Z" fill="white"/>
<path d="M7.09521 21.5476C7.09521 22.6 7.77521 23.4904 8.71426 23.8304V25.5952C8.71426 26.0404 9.07855 26.4047 9.52379 26.4047C9.96902 26.4047 10.3333 26.0404 10.3333 25.5952V23.8304C11.2724 23.4985 11.9524 22.6081 11.9524 21.5476C11.9524 20.2119 10.8595 19.119 9.52379 19.119C8.18807 19.119 7.09521 20.2119 7.09521 21.5476ZM10.3333 21.5476C10.3333 21.9928 9.96902 22.3571 9.52379 22.3571C9.07855 22.3571 8.71426 21.9928 8.71426 21.5476C8.71426 21.1024 9.07855 20.7381 9.52379 20.7381C9.96902 20.7381 10.3333 21.1024 10.3333 21.5476Z" fill="white"/>
<path d="M4.66664 5.35708H14.3809C14.8262 5.35708 15.1904 4.9928 15.1904 4.54756C15.1904 4.10232 14.8262 3.73804 14.3809 3.73804H4.66664C4.2214 3.73804 3.85712 4.10232 3.85712 4.54756C3.85712 4.9928 4.2214 5.35708 4.66664 5.35708Z" fill="white"/>
<path d="M15.1904 7.78572C15.1904 7.34048 14.8262 6.9762 14.3809 6.9762H4.66664C4.2214 6.9762 3.85712 7.34048 3.85712 7.78572C3.85712 8.23096 4.2214 8.59524 4.66664 8.59524H14.3809C14.8262 8.59524 15.1904 8.23096 15.1904 7.78572Z" fill="white"/>
</svg>
