<svg width="47" height="34" viewBox="0 0 47 34" fill="none" xmlns="http://www.w3.org/2000/svg">
<path d="M44.608 0H30.4348C27.354 0 24.6968 1.84129 23.5008 4.48021C23.2374 3.89565 22.9004 3.34361 22.495 2.84028C21.4278 1.5152 19.9319 0.575729 18.2828 0.194882C17.9191 0.110949 17.5567 0.337441 17.4727 0.700998C17.3886 1.06455 17.6153 1.42712 17.9788 1.51114C19.3345 1.82427 20.5647 2.59722 21.443 3.68771C22.3469 4.80999 22.8245 6.16651 22.8245 7.61083V30.4361C21.4163 28.6044 19.2089 27.4619 16.789 27.4619H2.39167C2.06342 27.4619 1.7964 27.1949 1.7964 26.8666V1.9462C1.7964 1.61795 2.06342 1.35093 2.39167 1.35093H14.9887C15.3617 1.35093 15.6642 1.04853 15.6642 0.675512C15.6642 0.302499 15.3617 9.06938e-05 14.9887 9.06938e-05H2.39167C1.31856 9.06938e-05 0.445557 0.873095 0.445557 1.9462V26.8666C0.445557 27.7321 1.01363 28.467 1.7964 28.7192V29.5682C1.7964 30.6414 2.6694 31.5144 3.74251 31.5144H7.54802C7.92103 31.5144 8.22344 31.212 8.22344 30.8389C8.22344 30.4659 7.92103 30.1635 7.54802 30.1635H3.74251C3.41426 30.1635 3.14724 29.8965 3.14724 29.5682V28.8127H16.789C18.7985 28.8127 20.6289 29.7714 21.7854 31.3033C20.3596 30.56 18.7673 30.1635 17.1276 30.1635H10.6928C10.3198 30.1635 10.0174 30.4659 10.0174 30.8389C10.0174 31.212 10.3198 31.5144 10.6928 31.5144H17.1276C19.325 31.5144 21.4258 32.3338 23.0426 33.8216C23.1719 33.9406 23.3359 34 23.4999 34C23.6639 34 23.8281 33.9405 23.9573 33.8216C25.5742 32.3338 27.6749 31.5144 29.8723 31.5144H43.2574C44.3305 31.5144 45.2035 30.6414 45.2035 29.5683V28.7191C45.9863 28.4669 46.5543 27.7319 46.5543 26.8664V1.9463C46.5543 0.873096 45.6812 0 44.608 0ZM43.2574 30.1636H29.8723C28.2324 30.1636 26.6399 30.5603 25.214 31.3036C26.3707 29.7714 28.2014 28.8126 30.211 28.8126H43.8527V29.5683C43.8527 29.8966 43.5856 30.1636 43.2574 30.1636ZM45.2035 26.8664C45.2035 27.1947 44.9364 27.4618 44.608 27.4618H30.211C27.7912 27.4618 25.5837 28.6046 24.1754 30.4363V7.61074V7.61029C24.1754 4.1588 26.9834 1.35084 30.4348 1.35084H44.608C44.9364 1.35084 45.2035 1.61795 45.2035 1.9463V26.8664Z" fill="white"/>
<path d="M11.6386 4.0553H4.5431C4.17008 4.0553 3.86768 4.35771 3.86768 4.73072C3.86768 5.10373 4.17008 5.40614 4.5431 5.40614H11.6386C12.0116 5.40614 12.314 5.10373 12.314 4.73072C12.314 4.35771 12.0116 4.0553 11.6386 4.0553Z" fill="white"/>
<path d="M20.8206 5.35526C19.5613 4.50486 18.0897 4.0553 16.5648 4.0553H14.5016C14.1286 4.0553 13.8262 4.35771 13.8262 4.73072C13.8262 5.10373 14.1286 5.40614 14.5016 5.40614H16.5648C17.8193 5.40614 19.0294 5.77564 20.0645 6.47466C20.1804 6.55292 20.3118 6.59047 20.4419 6.59047C20.6587 6.59047 20.8717 6.48619 21.0022 6.29292C21.2111 5.98385 21.1297 5.56401 20.8206 5.35526Z" fill="white"/>
<path d="M4.5431 8.77516H9.12038C9.4934 8.77516 9.79581 8.47275 9.79581 8.09974C9.79581 7.72673 9.4934 7.42432 9.12038 7.42432H4.5431C4.17008 7.42432 3.86768 7.72673 3.86768 8.09974C3.86768 8.47275 4.17008 8.77516 4.5431 8.77516Z" fill="white"/>
<path d="M14.5013 8.77516H16.5645C17.8194 8.77516 19.0295 9.14484 20.0639 9.8444C20.1799 9.92284 20.3115 9.96039 20.4416 9.96039C20.6583 9.96039 20.8713 9.85628 21.0018 9.6632C21.2107 9.35413 21.1295 8.93429 20.8206 8.72536C19.5618 7.87424 18.0901 7.42432 16.5644 7.42432H14.5012C14.1282 7.42432 13.8258 7.72673 13.8258 8.09974C13.8258 8.47275 14.1283 8.77516 14.5013 8.77516Z" fill="white"/>
<path d="M11.6386 10.7943H4.5431C4.17008 10.7943 3.86768 11.0967 3.86768 11.4697C3.86768 11.8427 4.17008 12.1452 4.5431 12.1452H11.6386C12.0116 12.1452 12.314 11.8427 12.314 11.4697C12.314 11.0967 12.0116 10.7943 11.6386 10.7943Z" fill="white"/>
<path d="M20.8206 12.0943C19.5613 11.2439 18.0897 10.7943 16.5648 10.7943H14.5016C14.1286 10.7943 13.8262 11.0967 13.8262 11.4697C13.8262 11.8427 14.1286 12.1452 14.5016 12.1452H16.5648C17.8193 12.1452 19.0294 12.5147 20.0645 13.2137C20.1804 13.2919 20.3118 13.3295 20.4419 13.3295C20.6587 13.3295 20.8717 13.2252 21.0022 13.0319C21.2111 12.7229 21.1297 12.303 20.8206 12.0943Z" fill="white"/>
<path d="M42.4563 17.5326H30.4347C28.9097 17.5326 27.4382 17.9822 26.1792 18.8327C25.8701 19.0416 25.7888 19.4614 25.9977 19.7706C26.1282 19.9638 26.3411 20.0679 26.558 20.0679C26.688 20.0679 26.8196 20.0304 26.9355 19.9521C27.9703 19.253 29.1803 18.8835 30.4347 18.8835H42.4563C42.8293 18.8835 43.1318 18.5811 43.1318 18.2081C43.1318 17.8351 42.8293 17.5326 42.4563 17.5326Z" fill="white"/>
<path d="M42.4563 20.9019H30.4347C28.9097 20.9019 27.4382 21.3514 26.1792 22.202C25.8701 22.4108 25.7888 22.8307 25.9977 23.1398C26.1282 23.333 26.3411 23.4372 26.558 23.4372C26.688 23.4372 26.8196 23.3997 26.9355 23.3214C27.9703 22.6223 29.1803 22.2528 30.4347 22.2528H42.4563C42.8293 22.2528 43.1318 21.9504 43.1318 21.5774C43.1318 21.2044 42.8293 20.9019 42.4563 20.9019Z" fill="white"/>
<path d="M37.4171 24.271H30.4347C28.9098 24.271 27.4382 24.7206 26.1793 25.5711C25.8701 25.78 25.7889 26.1998 25.9976 26.5089C26.1281 26.7022 26.3411 26.8063 26.5579 26.8063C26.688 26.8063 26.8196 26.7688 26.9354 26.6905C27.9703 25.9914 29.1803 25.6219 30.4347 25.6219H37.4171C37.7901 25.6219 38.0925 25.3195 38.0925 24.9465C38.0925 24.5735 37.7901 24.271 37.4171 24.271Z" fill="white"/>
<path d="M26.558 16.6993C26.6881 16.6993 26.8196 16.6618 26.9356 16.5834C27.9707 15.8839 29.1808 15.5142 30.4351 15.5142C30.8082 15.5142 31.1106 15.2118 31.1106 14.8388C31.1106 14.4657 30.8082 14.1633 30.4351 14.1633C28.9101 14.1633 27.4384 14.6132 26.1791 15.4642C25.87 15.673 25.7889 16.0929 25.9977 16.402C26.1283 16.5951 26.3412 16.6993 26.558 16.6993Z" fill="white"/>
<path d="M26.5579 13.3299C26.6881 13.3299 26.8195 13.2924 26.9354 13.214C27.9705 12.5145 29.1807 12.1448 30.4351 12.1448H32.4983C32.8713 12.1448 33.1737 11.8424 33.1737 11.4694C33.1737 11.0964 32.8713 10.7939 32.4983 10.7939H30.4351C28.9101 10.7939 27.4384 11.2438 26.1792 12.0947C25.8701 12.3036 25.7888 12.7235 25.9977 13.0326C26.1283 13.2257 26.3412 13.3299 26.5579 13.3299Z" fill="white"/>
<path d="M32.4983 7.42468H30.4351C28.9101 7.42468 27.4384 7.87451 26.1791 8.72555C25.87 8.93439 25.7889 9.35423 25.9977 9.66339C26.1282 9.85656 26.3411 9.96067 26.558 9.96067C26.6881 9.96067 26.8196 9.92311 26.9356 9.84476C27.9707 9.14521 29.1808 8.77553 30.4351 8.77553H32.4983C32.8713 8.77553 33.1738 8.47312 33.1738 8.1001C33.1738 7.72709 32.8713 7.42468 32.4983 7.42468Z" fill="white"/>
<path d="M26.5579 6.59128C26.6881 6.59128 26.8195 6.55373 26.9354 6.47538C27.9705 5.77582 29.1807 5.40614 30.4351 5.40614H32.4983C32.8713 5.40614 33.1737 5.10373 33.1737 4.73072C33.1737 4.35771 32.8713 4.0553 32.4983 4.0553H30.4351C28.9101 4.0553 27.4384 4.50513 26.1792 5.35607C25.8701 5.56491 25.7888 5.98484 25.9977 6.29392C26.1283 6.48709 26.3412 6.59128 26.5579 6.59128Z" fill="white"/>
<path d="M41.1861 4.0553H36.5707C35.5313 4.0553 34.6858 4.90084 34.6858 5.94017V13.6292C34.6858 14.6685 35.5313 15.5141 36.5707 15.5141H41.1861C42.2592 15.5141 43.1322 14.641 43.1322 13.5679V10.2683C43.1322 9.89526 42.8298 9.59285 42.4567 9.59285C42.0837 9.59285 41.7813 9.89526 41.7813 10.2683V13.5679C41.7813 13.8962 41.5143 14.1632 41.1861 14.1632H36.5707C36.2762 14.1632 36.0366 13.9237 36.0366 13.6292V5.94017C36.0366 5.64569 36.2762 5.40614 36.5707 5.40614H41.1861C41.5143 5.40614 41.7813 5.67316 41.7813 6.00141V7.11631C41.7813 7.48932 42.0837 7.79173 42.4567 7.79173C42.8298 7.79173 43.1322 7.48932 43.1322 7.11631V6.00141C43.1322 4.9283 42.2592 4.0553 41.1861 4.0553Z" fill="white"/>
<path d="M14.5012 25.6215H16.5644C17.8188 25.6215 19.0289 25.9912 20.0641 26.6907C20.1801 26.7691 20.3116 26.8066 20.4416 26.8066C20.6584 26.8066 20.8714 26.7024 21.0018 26.5092C21.2107 26.2002 21.1295 25.7803 20.8204 25.5714C19.561 24.7204 18.0893 24.2706 16.5644 24.2706H14.5012C14.1282 24.2706 13.8258 24.573 13.8258 24.9461C13.8258 25.3191 14.1282 25.6215 14.5012 25.6215Z" fill="white"/>
<path d="M14.5013 22.2522H16.5645C17.2002 22.2522 17.8264 22.3467 18.4255 22.5332C18.4923 22.5539 18.5599 22.5638 18.6263 22.5638C18.9143 22.5638 19.181 22.3782 19.2711 22.0888C19.3818 21.7327 19.1829 21.3541 18.8267 21.2432C18.0974 21.0164 17.3364 20.9014 16.5644 20.9014H14.5012C14.1282 20.9014 13.8258 21.2038 13.8258 21.5768C13.8258 21.9498 14.1283 22.2522 14.5013 22.2522Z" fill="white"/>
<path d="M20.8204 18.8328C19.561 17.9817 18.0893 17.532 16.5644 17.532H14.5012C14.1282 17.532 13.8258 17.8344 13.8258 18.2074C13.8258 18.5804 14.1282 18.8828 14.5012 18.8828H16.5644C17.8188 18.8828 19.0289 19.2525 20.0641 19.9521C20.1801 20.0304 20.3116 20.068 20.4416 20.068C20.6584 20.068 20.8714 19.9638 21.0018 19.7706C21.2107 19.4614 21.1295 19.0416 20.8204 18.8328Z" fill="white"/>
<path d="M14.5012 15.5136H16.5644C17.8188 15.5136 19.029 15.8833 20.0641 16.5829C20.18 16.6612 20.3116 16.6988 20.4416 16.6988C20.6584 16.6988 20.8713 16.5946 21.0018 16.4014C21.2107 16.0924 21.1295 15.6725 20.8204 15.4636C19.561 14.6125 18.0893 14.1627 16.5644 14.1627H14.5012C14.1282 14.1627 13.8258 14.4651 13.8258 14.8381C13.8258 15.2112 14.1282 15.5136 14.5012 15.5136Z" fill="white"/>
<path d="M10.429 14.1627H5.81342C4.74031 14.1627 3.86731 15.0357 3.86731 16.1088V23.6754C3.86731 24.7485 4.74031 25.6215 5.81342 25.6215H10.4289C11.4681 25.6215 12.3137 24.7759 12.3137 23.7367V16.0474C12.3138 15.0083 11.4682 14.1627 10.429 14.1627ZM10.9629 23.7368C10.9629 24.0312 10.7234 24.2707 10.429 24.2707H5.81351C5.48526 24.2707 5.21824 24.0037 5.21824 23.6754V16.1089C5.21824 15.7807 5.48526 15.5137 5.81351 15.5137H10.429C10.7234 15.5137 10.9629 15.7532 10.9629 16.0476V23.7368Z" fill="white"/>
</svg>
