<svg width="70" height="72" viewBox="0 0 70 72" fill="none" xmlns="http://www.w3.org/2000/svg">
<path d="M18.8332 32.6665L32.1665 2.6665C34.8187 2.6665 37.3622 3.72007 39.2376 5.59544C41.1129 7.4708 42.1665 10.0143 42.1665 12.6665V25.9998H61.0332C61.9995 25.9889 62.9567 26.1882 63.8384 26.5839C64.7201 26.9796 65.5052 27.5623 66.1394 28.2916C66.7735 29.0208 67.2415 29.8792 67.511 30.8073C67.7804 31.7354 67.8449 32.711 67.6998 33.6665L63.0998 63.6665C62.8588 65.2562 62.0513 66.7052 60.8262 67.7465C59.6011 68.7879 58.0409 69.3513 56.4332 69.3332H18.8332M18.8332 32.6665V69.3332M18.8332 32.6665H8.83317C7.06506 32.6665 5.36937 33.3689 4.11913 34.6191C2.86888 35.8694 2.1665 37.5651 2.1665 39.3332V62.6665C2.1665 64.4346 2.86888 66.1303 4.11913 67.3805C5.36937 68.6308 7.06506 69.3332 8.83317 69.3332H18.8332" stroke="#EB8847" stroke-width="4" stroke-linecap="round" stroke-linejoin="round"/>
</svg>
