<svg width="65" height="72" viewBox="0 0 65 72" fill="none" xmlns="http://www.w3.org/2000/svg">
<path d="M47.5 27.3332L17.5 10.0332M3.4 19.1998L32.5 36.0332L61.6 19.1998M32.5 69.5998V35.9998M62.5 49.3332V22.6665C62.4988 21.4974 62.1902 20.3492 61.6051 19.337C61.0201 18.3249 60.1791 17.4844 59.1667 16.8998L35.8333 3.5665C34.8199 2.98138 33.6702 2.67334 32.5 2.67334C31.3298 2.67334 30.1801 2.98138 29.1667 3.5665L5.83333 16.8998C4.82087 17.4844 3.97993 18.3249 3.39487 19.337C2.80981 20.3492 2.5012 21.4974 2.5 22.6665V49.3332C2.5012 50.5023 2.80981 51.6505 3.39487 52.6626C3.97993 53.6748 4.82087 54.5153 5.83333 55.0998L29.1667 68.4332C30.1801 69.0183 31.3298 69.3263 32.5 69.3263C33.6702 69.3263 34.8199 69.0183 35.8333 68.4332L59.1667 55.0998C60.1791 54.5153 61.0201 53.6748 61.6051 52.6626C62.1902 51.6505 62.4988 50.5023 62.5 49.3332Z" stroke="#EB8847" stroke-width="4" stroke-linecap="round" stroke-linejoin="round"/>
</svg>
