<svg width="79" height="64" viewBox="0 0 79 64" fill="none" xmlns="http://www.w3.org/2000/svg">
<path d="M52.8335 45.3333V2H2.8335V45.3333H52.8335ZM52.8335 45.3333H76.1668V28.6667L66.1668 18.6667H52.8335V45.3333ZM26.1668 53.6667C26.1668 58.269 22.4359 62 17.8335 62C13.2311 62 9.50016 58.269 9.50016 53.6667C9.50016 49.0643 13.2311 45.3333 17.8335 45.3333C22.4359 45.3333 26.1668 49.0643 26.1668 53.6667ZM69.5002 53.6667C69.5002 58.269 65.7692 62 61.1668 62C56.5645 62 52.8335 58.269 52.8335 53.6667C52.8335 49.0643 56.5645 45.3333 61.1668 45.3333C65.7692 45.3333 69.5002 49.0643 69.5002 53.6667Z" stroke="#EB8847" stroke-width="4" stroke-linecap="round" stroke-linejoin="round"/>
</svg>
