<svg width="34" height="34" viewBox="0 0 34 34" fill="none" xmlns="http://www.w3.org/2000/svg">
<path d="M28.75 11.3334H5.41669C5.04821 11.3334 4.6667 11.5485 4.6667 11.9167V21.9167C4.6667 22.2848 5.04821 22.6667 5.41669 22.6667H28.7501C29.1185 22.6667 29.3334 22.2848 29.3334 21.9167V11.9167C29.3334 11.5485 29.1185 11.3334 28.75 11.3334ZM28 21.3334H6.00001V12.6667H28V21.3334Z" fill="white"/>
<path d="M28.75 0H5.41669C5.04821 0 4.6667 0.215156 4.6667 0.583313V9.24999C4.6667 9.61815 4.96487 9.91664 5.33335 9.91664C5.70184 9.91664 6.00001 9.61815 6.00001 9.24999V1.3333H28V9.24999C28 9.61815 28.2982 9.91664 28.6667 9.91664C29.0351 9.91664 29.3333 9.61815 29.3333 9.24999V0.583313C29.3334 0.215156 29.1185 0 28.75 0Z" fill="white"/>
<path d="M28.6667 23.9166C28.2982 23.9166 28 24.2151 28 24.5833V32.6666H6.00001V24.5833C6.00001 24.2151 5.70184 23.9166 5.33335 23.9166C4.96487 23.9166 4.6667 24.2151 4.6667 24.5833V33.25C4.6667 33.6181 5.04821 33.9999 5.41669 33.9999H28.7501C29.1185 33.9999 29.3334 33.6181 29.3334 33.25V24.5833C29.3334 24.2151 29.0351 23.9166 28.6667 23.9166Z" fill="white"/>
<path d="M20 6.66663H14V7.99993H20V6.66663Z" fill="white"/>
<path d="M20 16.6666H14V17.9999H20V16.6666Z" fill="white"/>
<path d="M20 28H14V29.3333H20V28Z" fill="white"/>
</svg>
