<svg width="35" height="21" viewBox="0 0 35 21" fill="none" xmlns="http://www.w3.org/2000/svg">
<path d="M33.9333 8.23337H11.6169C12.5611 7.41956 12.6668 5.9944 11.853 5.05019C11.422 4.5501 10.7936 4.2638 10.1333 4.2667H7.86667C7.0088 4.26939 6.22638 4.75729 5.8465 5.5264L3.84787 1.19593C3.75522 0.995262 3.5544 0.866699 3.33333 0.866699H1.06667C0.753725 0.866699 0.5 1.12042 0.5 1.43337V17.3C0.5 17.613 0.753725 17.8667 1.06667 17.8667H2.2V19.5667C2.2 19.8796 2.45372 20.1334 2.76667 20.1334H5.03333C5.34627 20.1334 5.6 19.8796 5.6 19.5667V17.8667H29.4V19.5667C29.4 19.8796 29.6537 20.1334 29.9667 20.1334H32.2333C32.5463 20.1334 32.8 19.8796 32.8 19.5667V17.8667H33.9333C34.2463 17.8667 34.5 17.613 34.5 17.3V8.80003C34.5 8.48709 34.2463 8.23337 33.9333 8.23337ZM7.86667 5.40003H10.1333C10.7593 5.40003 11.2667 5.90741 11.2667 6.53337C11.2667 7.15932 10.7593 7.6667 10.1333 7.6667H7.86667C7.24071 7.6667 6.73333 7.15932 6.73333 6.53337C6.73333 5.90741 7.24071 5.40003 7.86667 5.40003ZM1.63333 2.00003H2.97067L5.8482 8.23337H1.63333V2.00003ZM4.46667 19H3.33333V17.8667H4.46667V19ZM31.6667 19H30.5333V17.8667H31.6667V19ZM33.3667 16.7334H1.63333V9.3667H33.3667V16.7334Z" fill="white"/>
</svg>
