<svg width="34" height="35" viewBox="0 0 34 35" fill="none" xmlns="http://www.w3.org/2000/svg">
<path d="M31.875 12.7188H2.125C1.9841 12.7188 1.84898 12.6628 1.74935 12.5632C1.64972 12.4635 1.59375 12.3284 1.59375 12.1875V7.9375C1.59375 7.7966 1.64972 7.66148 1.74935 7.56185C1.84898 7.46222 1.9841 7.40625 2.125 7.40625H31.875C32.0159 7.40625 32.151 7.46222 32.2507 7.56185C32.3503 7.66148 32.4062 7.7966 32.4062 7.9375V12.1875C32.4062 12.3284 32.3503 12.4635 32.2507 12.5632C32.151 12.6628 32.0159 12.7188 31.875 12.7188ZM2.65625 11.6562H31.3438V8.46875H2.65625V11.6562Z" fill="white"/>
<path d="M5.31247 32.9063H2.12497C2.04248 32.9089 1.96051 32.8923 1.88556 32.8577C1.81062 32.8232 1.74475 32.7716 1.6932 32.7072C1.64164 32.6427 1.60581 32.5671 1.58854 32.4864C1.57127 32.4057 1.57305 32.3221 1.59372 32.2422L6.90622 12.0547C6.93634 11.9378 7.00536 11.8347 7.10192 11.7623C7.19848 11.6898 7.31683 11.6525 7.43747 11.6563H10.625C10.7075 11.6536 10.7894 11.6703 10.8644 11.7048C10.9393 11.7394 11.0052 11.7909 11.0567 11.8554C11.1083 11.9198 11.1441 11.9954 11.1614 12.0761C11.1787 12.1568 11.1769 12.2404 11.1562 12.3203L5.84372 32.5078C5.81361 32.6247 5.74458 32.7279 5.64802 32.8003C5.55146 32.8727 5.43311 32.9101 5.31247 32.9063ZM2.8156 31.8438H4.90341L9.93435 12.7188H7.84653L2.8156 31.8438Z" fill="white"/>
<path d="M31.875 32.9063H28.6875C28.5668 32.9101 28.4485 32.8727 28.3519 32.8003C28.2554 32.7279 28.1863 32.6247 28.1562 32.5078L22.8437 12.3203C22.823 12.2404 22.8213 12.1568 22.8385 12.0761C22.8558 11.9954 22.8916 11.9198 22.9432 11.8554C22.9948 11.7909 23.0606 11.7394 23.1356 11.7048C23.2105 11.6703 23.2925 11.6536 23.375 11.6563H26.5625C26.6831 11.6525 26.8015 11.6898 26.898 11.7623C26.9946 11.8347 27.0636 11.9378 27.0937 12.0547L32.4062 32.2422C32.4269 32.3221 32.4287 32.4057 32.4114 32.4864C32.3941 32.5671 32.3583 32.6427 32.3067 32.7072C32.2552 32.7716 32.1893 32.8232 32.1144 32.8577C32.0394 32.8923 31.9575 32.9089 31.875 32.9063ZM29.0965 31.8438H31.1843L26.1534 12.7188H24.0656L29.0965 31.8438Z" fill="white"/>
<path d="M29.75 8.46877H26.5625C26.432 8.46971 26.3057 8.42258 26.2077 8.33635C26.1098 8.25013 26.0469 8.13085 26.0313 8.00127L25.5 3.75127C25.491 3.67712 25.4976 3.60189 25.5196 3.53048C25.5416 3.45908 25.5783 3.39312 25.6275 3.3369C25.6779 3.27955 25.74 3.23373 25.8097 3.20257C25.8794 3.1714 25.955 3.15561 26.0313 3.15627H30.2813C30.3567 3.15637 30.4313 3.17252 30.5 3.20367C30.5687 3.23481 30.6299 3.28023 30.6797 3.3369C30.7289 3.39312 30.7657 3.45908 30.7877 3.53048C30.8096 3.60189 30.8163 3.67712 30.8072 3.75127L30.276 8.00127C30.2604 8.12994 30.1984 8.24848 30.1015 8.33458C30.0046 8.42069 29.8796 8.46841 29.75 8.46877ZM27.03 7.40627H29.2825L29.681 4.21877H26.6316L27.03 7.40627Z" fill="white"/>
</svg>
